<svg viewBox="0 0 980 188" xmlns="http://www.w3.org/2000/svg" fill="none">
  <g><style>
    .lbl { font: 600 14px 'Segoe UI',Ubuntu,Helvetica,Arial,sans-serif; }
    .val { font: 700 17px 'Segoe UI',Ubuntu,Helvetica,Arial,sans-serif; fill:#7d8590; }
  </style>
  <line x1="8" y1="43" x2="472" y2="43" stroke="#8a8f98" stroke-opacity="0.08"/>
  <line x1="8" y1="79" x2="472" y2="79" stroke="#8a8f98" stroke-opacity="0.08"/>
  <line x1="8" y1="115" x2="472" y2="115" stroke="#8a8f98" stroke-opacity="0.08"/>
  <line x1="8" y1="151" x2="472" y2="151" stroke="#8a8f98" stroke-opacity="0.08"/>
  <g transform="translate(6,14) scale(0.75)" stroke="#bf7257" stroke-width="2" fill="none" stroke-linecap="round" stroke-linejoin="round"><path d="M11.525 2.295a.53.53 0 0 1 .95 0l2.31 4.679a2.123 2.123 0 0 0 1.595 1.16l5.166.756a.53.53 0 0 1 .294.904l-3.736 3.638a2.123 2.123 0 0 0 -.611 1.878l.882 5.14a.53.53 0 0 1-.771.56l-4.618-2.428a2.122 2.122 0 0 0 -1.973 0L6.396 21.01a.53.53 0 0 1-.77-.56l.881-5.139a2.122 2.122 0 0 0 -.611-1.879L2.16 9.795a.53.53 0 0 1 .294-.906l5.165-.755a2.122 2.122 0 0 0 1.597-1.16z"/></g>
  <text x="34" y="28" class="lbl" fill="#bf7257">Total Stars Earned</text>
  <text x="474" y="28" text-anchor="end" class="val">12</text>
  <g transform="translate(6,50) scale(0.75)" stroke="#6f8bad" stroke-width="2" fill="none" stroke-linecap="round" stroke-linejoin="round"><circle cx="12" cy="12" r="3"/><line x1="3" y1="12" x2="9" y2="12"/><line x1="15" y1="12" x2="21" y2="12"/></g>
  <text x="34" y="64" class="lbl" fill="#6f8bad">Total Commits (2026)</text>
  <text x="474" y="64" text-anchor="end" class="val">277</text>
  <g transform="translate(6,86) scale(0.75)" stroke="#7e9c86" stroke-width="2" fill="none" stroke-linecap="round" stroke-linejoin="round"><circle cx="6" cy="6" r="3"/><circle cx="18" cy="18" r="3"/><path d="M13 6h3a2 2 0 0 1 2 2v7"/><line x1="6" y1="9" x2="6" y2="21"/></g>
  <text x="34" y="100" class="lbl" fill="#7e9c86">Total PRs</text>
  <text x="474" y="100" text-anchor="end" class="val">2</text>
  <g transform="translate(6,122) scale(0.75)" stroke="#bf7257" stroke-width="2" fill="none" stroke-linecap="round" stroke-linejoin="round"><circle cx="12" cy="12" r="9"/><circle cx="12" cy="12" r="1.6" fill="#bf7257" stroke="none"/></g>
  <text x="34" y="136" class="lbl" fill="#bf7257">Total Issues</text>
  <text x="474" y="136" text-anchor="end" class="val">1</text>
  <g transform="translate(6,158) scale(0.75)" stroke="#6f8bad" stroke-width="2" fill="none" stroke-linecap="round" stroke-linejoin="round"><path d="M20 20a2 2 0 0 0 2-2V8a2 2 0 0 0-2-2h-7.9a2 2 0 0 1-1.69-.9L9.6 3.9A2 2 0 0 0 7.93 3H4a2 2 0 0 0-2 2v13a2 2 0 0 0 2 2Z"/></g>
  <text x="34" y="172" class="lbl" fill="#6f8bad">Contributed to (2026)</text>
  <text x="474" y="172" text-anchor="end" class="val">12</text></g>
  <g transform="translate(500,0)"><style>
    .ln { font: 600 14px 'Segoe UI',Ubuntu,Helvetica,Arial,sans-serif; fill:#8a8f98; }
    .lp { font: 700 14px 'Segoe UI',Ubuntu,Helvetica,Arial,sans-serif; fill:#7d8590; }
  </style>
  <clipPath id="bc"><rect x="8" y="17" width="464" height="11" rx="5.5"/></clipPath><g clip-path="url(#bc)"><rect x="8.00" y="17" width="275.98" height="11" fill="#9f7f52"/><rect x="283.38" y="17" width="73.98" height="11" fill="#3e99d1"/><rect x="356.76" y="17" width="63.57" height="11" fill="#5b7f9f"/><rect x="419.73" y="17" width="13.95" height="11" fill="#4b8a44"/><rect x="433.08" y="17" width="12.01" height="11" fill="#c46a89"/><rect x="444.49" y="17" width="11.01" height="11" fill="#bb6a59"/><rect x="454.90" y="17" width="10.50" height="11" fill="#6d6f73"/><rect x="464.81" y="17" width="7.79" height="11" fill="#6e7681"/></g>
  <circle cx="13" cy="59" r="5" fill="#9f7f52"/><text x="28" y="64" class="ln">Java</text><text x="212" y="64" text-anchor="end" class="lp">59%</text><circle cx="268" cy="59" r="5" fill="#3e99d1"/><text x="282" y="64" class="ln">Luau</text><text x="472" y="64" text-anchor="end" class="lp">16%</text><circle cx="13" cy="95" r="5" fill="#5b7f9f"/><text x="28" y="100" class="ln">Python</text><text x="212" y="100" text-anchor="end" class="lp">14%</text><circle cx="268" cy="95" r="5" fill="#4b8a44"/><text x="282" y="100" class="ln">C#</text><text x="472" y="100" text-anchor="end" class="lp">3%</text><circle cx="13" cy="131" r="5" fill="#c46a89"/><text x="28" y="136" class="ln">C++</text><text x="212" y="136" text-anchor="end" class="lp">2%</text><circle cx="268" cy="131" r="5" fill="#bb6a59"/><text x="282" y="136" class="ln">HTML</text><text x="472" y="136" text-anchor="end" class="lp">2%</text><circle cx="13" cy="167" r="5" fill="#6d6f73"/><text x="28" y="172" class="ln">C</text><text x="212" y="172" text-anchor="end" class="lp">2%</text><circle cx="268" cy="167" r="5" fill="#6e7681"/><text x="282" y="172" class="ln">Other</text><text x="472" y="172" text-anchor="end" class="lp">2%</text></g>
</svg>
