<svg viewBox="0 0 400 188" xmlns="http://www.w3.org/2000/svg" fill="none">
  <style>
    .ln { font: 600 14px 'Segoe UI',Ubuntu,Helvetica,Arial,sans-serif; fill:#8a8f98; }
    .lp { font: 700 14px 'Segoe UI',Ubuntu,Helvetica,Arial,sans-serif; fill:#7d8590; }
  </style>
  <clipPath id="bc"><rect x="8" y="22" width="384" height="11" rx="5.5"/></clipPath><g clip-path="url(#bc)"><rect x="8.00" y="22" width="209.55" height="11" fill="#9f7f52"/><rect x="216.95" y="22" width="94.34" height="11" fill="#3e99d1"/><rect x="310.68" y="22" width="18.16" height="11" fill="#5b7f9f"/><rect x="328.25" y="22" width="17.65" height="11" fill="#4b8a44"/><rect x="345.30" y="22" width="15.17" height="11" fill="#c46a89"/><rect x="359.88" y="22" width="13.25" height="11" fill="#6d6f73"/><rect x="372.53" y="22" width="6.59" height="11" fill="#bb6a59"/><rect x="378.52" y="22" width="14.08" height="11" fill="#6e7681"/></g>
  <circle cx="13" cy="60" r="5" fill="#9f7f52"/><text x="24" y="64" class="ln">Java</text><text x="196" y="64" text-anchor="end" class="lp">54%</text><circle cx="211" cy="60" r="5" fill="#3e99d1"/><text x="222" y="64" class="ln">Luau</text><text x="392" y="64" text-anchor="end" class="lp">24%</text><circle cx="13" cy="96" r="5" fill="#5b7f9f"/><text x="24" y="100" class="ln">Python</text><text x="196" y="100" text-anchor="end" class="lp">5%</text><circle cx="211" cy="96" r="5" fill="#4b8a44"/><text x="222" y="100" class="ln">C#</text><text x="392" y="100" text-anchor="end" class="lp">4%</text><circle cx="13" cy="132" r="5" fill="#c46a89"/><text x="24" y="136" class="ln">C++</text><text x="196" y="136" text-anchor="end" class="lp">4%</text><circle cx="211" cy="132" r="5" fill="#6d6f73"/><text x="222" y="136" class="ln">C</text><text x="392" y="136" text-anchor="end" class="lp">3%</text><circle cx="13" cy="168" r="5" fill="#bb6a59"/><text x="24" y="172" class="ln">HTML</text><text x="196" y="172" text-anchor="end" class="lp">2%</text><circle cx="211" cy="168" r="5" fill="#6e7681"/><text x="222" y="172" class="ln">Other</text><text x="392" y="172" text-anchor="end" class="lp">4%</text>
</svg>
