<svg viewBox="0 0 480 188" xmlns="http://www.w3.org/2000/svg" fill="none">
  <style>
    .ln { font: 600 14px 'Segoe UI',Ubuntu,Helvetica,Arial,sans-serif; fill:#8a8f98; }
    .lp { font: 700 14px 'Segoe UI',Ubuntu,Helvetica,Arial,sans-serif; fill:#7d8590; }
  </style>
  <clipPath id="bc"><rect x="8" y="17" width="464" height="11" rx="5.5"/></clipPath><g clip-path="url(#bc)"><rect x="8.00" y="17" width="245.35" height="11" fill="#9f7f52"/><rect x="252.75" y="17" width="93.15" height="11" fill="#5b7f9f"/><rect x="345.30" y="17" width="59.30" height="11" fill="#3e99d1"/><rect x="404.00" y="17" width="25.14" height="11" fill="#607651"/><rect x="428.54" y="17" width="11.28" height="11" fill="#4b8a44"/><rect x="439.22" y="17" width="9.73" height="11" fill="#c46a89"/><rect x="448.35" y="17" width="8.77" height="11" fill="#bb6a59"/><rect x="456.52" y="17" width="16.08" height="11" fill="#6e7681"/></g>
  <circle cx="13" cy="59" r="5" fill="#9f7f52"/><text x="28" y="64" class="ln">Java</text><text x="212" y="64" text-anchor="end" class="lp">53%</text><circle cx="268" cy="59" r="5" fill="#5b7f9f"/><text x="282" y="64" class="ln">Python</text><text x="472" y="64" text-anchor="end" class="lp">20%</text><circle cx="13" cy="95" r="5" fill="#3e99d1"/><text x="28" y="100" class="ln">Luau</text><text x="212" y="100" text-anchor="end" class="lp">13%</text><circle cx="268" cy="95" r="5" fill="#607651"/><text x="282" y="100" class="ln">TeX</text><text x="472" y="100" text-anchor="end" class="lp">5%</text><circle cx="13" cy="131" r="5" fill="#4b8a44"/><text x="28" y="136" class="ln">C#</text><text x="212" y="136" text-anchor="end" class="lp">2%</text><circle cx="268" cy="131" r="5" fill="#c46a89"/><text x="282" y="136" class="ln">C++</text><text x="472" y="136" text-anchor="end" class="lp">2%</text><circle cx="13" cy="167" r="5" fill="#bb6a59"/><text x="28" y="172" class="ln">HTML</text><text x="212" y="172" text-anchor="end" class="lp">2%</text><circle cx="268" cy="167" r="5" fill="#6e7681"/><text x="282" y="172" class="ln">Other</text><text x="472" y="172" text-anchor="end" class="lp">3%</text>
</svg>
