<svg viewBox="0 0 480 188" xmlns="http://www.w3.org/2000/svg" fill="none">
  <style>
    .ln { font: 600 14px 'Segoe UI',Ubuntu,Helvetica,Arial,sans-serif; fill:#8a8f98; }
    .lp { font: 700 14px 'Segoe UI',Ubuntu,Helvetica,Arial,sans-serif; fill:#7d8590; }
  </style>
  <clipPath id="bc"><rect x="8" y="17" width="464" height="11" rx="5.5"/></clipPath><g clip-path="url(#bc)"><rect x="8.00" y="17" width="244.70" height="11" fill="#9f7f52"/><rect x="252.10" y="17" width="108.02" height="11" fill="#3e99d1"/><rect x="359.52" y="17" width="40.02" height="11" fill="#5b7f9f"/><rect x="398.94" y="17" width="20.14" height="11" fill="#4b8a44"/><rect x="418.48" y="17" width="17.30" height="11" fill="#c46a89"/><rect x="435.19" y="17" width="15.10" height="11" fill="#6d6f73"/><rect x="449.69" y="17" width="7.47" height="11" fill="#bb6a59"/><rect x="456.55" y="17" width="16.05" height="11" fill="#6e7681"/></g>
  <circle cx="13" cy="59" r="5" fill="#9f7f52"/><text x="28" y="64" class="ln">Java</text><text x="212" y="64" text-anchor="end" class="lp">53%</text><circle cx="268" cy="59" r="5" fill="#3e99d1"/><text x="282" y="64" class="ln">Luau</text><text x="472" y="64" text-anchor="end" class="lp">23%</text><circle cx="13" cy="95" r="5" fill="#5b7f9f"/><text x="28" y="100" class="ln">Python</text><text x="212" y="100" text-anchor="end" class="lp">8%</text><circle cx="268" cy="95" r="5" fill="#4b8a44"/><text x="282" y="100" class="ln">C#</text><text x="472" y="100" text-anchor="end" class="lp">4%</text><circle cx="13" cy="131" r="5" fill="#c46a89"/><text x="28" y="136" class="ln">C++</text><text x="212" y="136" text-anchor="end" class="lp">4%</text><circle cx="268" cy="131" r="5" fill="#6d6f73"/><text x="282" y="136" class="ln">C</text><text x="472" y="136" text-anchor="end" class="lp">3%</text><circle cx="13" cy="167" r="5" fill="#bb6a59"/><text x="28" y="172" class="ln">HTML</text><text x="212" y="172" text-anchor="end" class="lp">1%</text><circle cx="268" cy="167" r="5" fill="#6e7681"/><text x="282" y="172" class="ln">Other</text><text x="472" y="172" text-anchor="end" class="lp">3%</text>
</svg>
