<svg viewBox="0 0 480 188" xmlns="http://www.w3.org/2000/svg" fill="none">
  <style>
    .ln { font: 600 14px 'Segoe UI',Ubuntu,Helvetica,Arial,sans-serif; fill:#8a8f98; }
    .lp { font: 700 14px 'Segoe UI',Ubuntu,Helvetica,Arial,sans-serif; fill:#7d8590; }
  </style>
  <clipPath id="bc"><rect x="8" y="17" width="464" height="11" rx="5.5"/></clipPath><g clip-path="url(#bc)"><rect x="8.00" y="17" width="303.75" height="11" fill="#607651"/><rect x="311.15" y="17" width="106.44" height="11" fill="#5b7f9f"/><rect x="416.98" y="17" width="36.53" height="11" fill="#9f7f52"/><rect x="452.91" y="17" width="9.20" height="11" fill="#3e99d1"/><rect x="461.51" y="17" width="5.93" height="11" fill="#4b8a44"/><rect x="466.84" y="17" width="1.94" height="11" fill="#c46a89"/><rect x="468.17" y="17" width="1.80" height="11" fill="#bb6a59"/><rect x="469.37" y="17" width="3.23" height="11" fill="#6e7681"/></g>
  <circle cx="13" cy="59" r="5" fill="#607651"/><text x="28" y="64" class="ln">TeX</text><text x="212" y="64" text-anchor="end" class="lp">65%</text><circle cx="268" cy="59" r="5" fill="#5b7f9f"/><text x="282" y="64" class="ln">Python</text><text x="472" y="64" text-anchor="end" class="lp">23%</text><circle cx="13" cy="95" r="5" fill="#9f7f52"/><text x="28" y="100" class="ln">Java</text><text x="212" y="100" text-anchor="end" class="lp">8%</text><circle cx="268" cy="95" r="5" fill="#3e99d1"/><text x="282" y="100" class="ln">Luau</text><text x="472" y="100" text-anchor="end" class="lp">2%</text><circle cx="13" cy="131" r="5" fill="#4b8a44"/><text x="28" y="136" class="ln">C#</text><text x="212" y="136" text-anchor="end" class="lp">1%</text><circle cx="268" cy="131" r="5" fill="#c46a89"/><text x="282" y="136" class="ln">C++</text><text x="472" y="136" text-anchor="end" class="lp">0%</text><circle cx="13" cy="167" r="5" fill="#bb6a59"/><text x="28" y="172" class="ln">HTML</text><text x="212" y="172" text-anchor="end" class="lp">0%</text><circle cx="268" cy="167" r="5" fill="#6e7681"/><text x="282" y="172" class="ln">Other</text><text x="472" y="172" text-anchor="end" class="lp">1%</text>
</svg>
