<svg viewBox="0 0 480 188" xmlns="http://www.w3.org/2000/svg" fill="none">
  <style>
    .ln { font: 600 14px 'Segoe UI',Ubuntu,Helvetica,Arial,sans-serif; fill:#8a8f98; }
    .lp { font: 700 14px 'Segoe UI',Ubuntu,Helvetica,Arial,sans-serif; fill:#7d8590; }
  </style>
  <clipPath id="bc"><rect x="8" y="17" width="464" height="11" rx="5.5"/></clipPath><g clip-path="url(#bc)"><rect x="8.00" y="17" width="249.97" height="11" fill="#607651"/><rect x="257.37" y="17" width="102.26" height="11" fill="#9f7f52"/><rect x="359.03" y="17" width="60.58" height="11" fill="#5b7f9f"/><rect x="419.01" y="17" width="24.92" height="11" fill="#3e99d1"/><rect x="443.33" y="17" width="15.68" height="11" fill="#4b8a44"/><rect x="458.40" y="17" width="4.38" height="11" fill="#c46a89"/><rect x="462.19" y="17" width="3.99" height="11" fill="#bb6a59"/><rect x="465.57" y="17" width="7.03" height="11" fill="#6e7681"/></g>
  <circle cx="13" cy="59" r="5" fill="#607651"/><text x="28" y="64" class="ln">TeX</text><text x="212" y="64" text-anchor="end" class="lp">54%</text><circle cx="268" cy="59" r="5" fill="#9f7f52"/><text x="282" y="64" class="ln">Java</text><text x="472" y="64" text-anchor="end" class="lp">22%</text><circle cx="13" cy="95" r="5" fill="#5b7f9f"/><text x="28" y="100" class="ln">Python</text><text x="212" y="100" text-anchor="end" class="lp">13%</text><circle cx="268" cy="95" r="5" fill="#3e99d1"/><text x="282" y="100" class="ln">Luau</text><text x="472" y="100" text-anchor="end" class="lp">5%</text><circle cx="13" cy="131" r="5" fill="#4b8a44"/><text x="28" y="136" class="ln">C#</text><text x="212" y="136" text-anchor="end" class="lp">3%</text><circle cx="268" cy="131" r="5" fill="#c46a89"/><text x="282" y="136" class="ln">C++</text><text x="472" y="136" text-anchor="end" class="lp">1%</text><circle cx="13" cy="167" r="5" fill="#bb6a59"/><text x="28" y="172" class="ln">HTML</text><text x="212" y="172" text-anchor="end" class="lp">1%</text><circle cx="268" cy="167" r="5" fill="#6e7681"/><text x="282" y="172" class="ln">Other</text><text x="472" y="172" text-anchor="end" class="lp">1%</text>
</svg>
