<svg viewBox="0 0 932 64" xmlns="http://www.w3.org/2000/svg">
 <path d="M45.47 15.89 L43.33 21.70 L47.62 21.70 L45.47 15.89 Z M44.58 14.33 L46.37 14.33 L50.81 26.00 L49.17 26.00 L48.11 23.01 L42.85 23.01 L41.79 26.00 L40.12 26.00 L44.58 14.33 Z M63.84 17.59 L63.84 18.93 Q63.23 18.59 62.61 18.43 Q62.00 18.26 61.38 18.26 Q59.98 18.26 59.20 19.14 Q58.43 20.03 58.43 21.63 Q58.43 23.23 59.20 24.12 Q59.98 25.01 61.38 25.01 Q62.00 25.01 62.61 24.84 Q63.23 24.67 63.84 24.34 L63.84 25.66 Q63.23 25.95 62.59 26.09 Q61.95 26.23 61.22 26.23 Q59.24 26.23 58.08 24.98 Q56.91 23.74 56.91 21.63 Q56.91 19.49 58.09 18.27 Q59.27 17.04 61.31 17.04 Q61.98 17.04 62.61 17.18 Q63.24 17.31 63.84 17.59 Z M69.73 18.26 Q68.57 18.26 67.90 19.16 Q67.23 20.06 67.23 21.63 Q67.23 23.20 67.89 24.11 Q68.56 25.01 69.73 25.01 Q70.88 25.01 71.55 24.10 Q72.22 23.20 72.22 21.63 Q72.22 20.08 71.55 19.17 Q70.88 18.26 69.73 18.26 Z M69.73 17.04 Q71.60 17.04 72.67 18.26 Q73.74 19.48 73.74 21.63 Q73.74 23.78 72.67 25.00 Q71.60 26.23 69.73 26.23 Q67.84 26.23 66.78 25.00 Q65.71 23.78 65.71 21.63 Q65.71 19.48 66.78 18.26 Q67.84 17.04 69.73 17.04 Z M82.94 18.93 Q83.48 17.96 84.23 17.50 Q84.98 17.04 85.99 17.04 Q87.36 17.04 88.10 18.00 Q88.84 18.95 88.84 20.72 L88.84 26.00 L87.40 26.00 L87.40 20.77 Q87.40 19.51 86.95 18.90 Q86.51 18.29 85.59 18.29 Q84.48 18.29 83.83 19.03 Q83.18 19.77 83.18 21.05 L83.18 26.00 L81.73 26.00 L81.73 20.77 Q81.73 19.50 81.29 18.89 Q80.84 18.29 79.91 18.29 Q78.81 18.29 78.16 19.04 Q77.51 19.78 77.51 21.05 L77.51 26.00 L76.07 26.00 L76.07 17.25 L77.51 17.25 L77.51 18.61 Q78.01 17.80 78.69 17.42 Q79.38 17.04 80.33 17.04 Q81.28 17.04 81.95 17.52 Q82.62 18.01 82.94 18.93 Z M93.10 24.69 L93.10 29.33 L91.66 29.33 L91.66 17.25 L93.10 17.25 L93.10 18.58 Q93.56 17.80 94.25 17.42 Q94.94 17.04 95.90 17.04 Q97.49 17.04 98.49 18.30 Q99.49 19.57 99.49 21.63 Q99.49 23.70 98.49 24.96 Q97.49 26.23 95.90 26.23 Q94.94 26.23 94.25 25.85 Q93.56 25.47 93.10 24.69 Z M97.99 21.63 Q97.99 20.05 97.34 19.14 Q96.69 18.24 95.55 18.24 Q94.41 18.24 93.75 19.14 Q93.10 20.05 93.10 21.63 Q93.10 23.22 93.75 24.12 Q94.41 25.02 95.55 25.02 Q96.69 25.02 97.34 24.12 Q97.99 23.22 97.99 21.63 Z M101.72 22.55 L101.72 17.25 L103.16 17.25 L103.16 22.49 Q103.16 23.73 103.64 24.36 Q104.12 24.98 105.09 24.98 Q106.26 24.98 106.93 24.23 Q107.61 23.49 107.61 22.21 L107.61 17.25 L109.05 17.25 L109.05 26.00 L107.61 26.00 L107.61 24.66 Q107.09 25.45 106.39 25.84 Q105.70 26.23 104.79 26.23 Q103.28 26.23 102.50 25.29 Q101.72 24.35 101.72 22.55 Z M105.34 17.04 L105.34 17.04 Z M113.43 14.77 L113.43 17.25 L116.39 17.25 L116.39 18.37 L113.43 18.37 L113.43 23.12 Q113.43 24.19 113.72 24.49 Q114.02 24.80 114.92 24.80 L116.39 24.80 L116.39 26.00 L114.92 26.00 Q113.25 26.00 112.62 25.38 Q111.98 24.76 111.98 23.12 L111.98 18.37 L110.93 18.37 L110.93 17.25 L111.98 17.25 L111.98 14.77 L113.43 14.77 Z M125.77 21.27 L125.77 21.97 L119.16 21.97 Q119.25 23.45 120.05 24.23 Q120.85 25.01 122.28 25.01 Q123.11 25.01 123.89 24.80 Q124.66 24.60 125.43 24.20 L125.43 25.55 Q124.66 25.88 123.84 26.05 Q123.03 26.23 122.20 26.23 Q120.10 26.23 118.88 25.01 Q117.66 23.79 117.66 21.71 Q117.66 19.56 118.82 18.30 Q119.98 17.04 121.95 17.04 Q123.71 17.04 124.74 18.18 Q125.77 19.31 125.77 21.27 Z M124.33 20.84 Q124.31 19.66 123.67 18.96 Q123.02 18.26 121.96 18.26 Q120.76 18.26 120.04 18.94 Q119.31 19.62 119.20 20.85 L124.33 20.84 Z M133.19 18.59 Q132.95 18.45 132.67 18.39 Q132.38 18.32 132.04 18.32 Q130.82 18.32 130.17 19.11 Q129.51 19.91 129.51 21.39 L129.51 26.00 L128.07 26.00 L128.07 17.25 L129.51 17.25 L129.51 18.61 Q129.97 17.81 130.69 17.43 Q131.42 17.04 132.46 17.04 Q132.61 17.04 132.79 17.06 Q132.97 17.08 133.19 17.12 L133.19 18.59 Z M138.95 17.25 L140.39 17.25 L142.19 24.08 L143.98 17.25 L145.67 17.25 L147.47 24.08 L149.26 17.25 L150.70 17.25 L148.41 26.00 L146.71 26.00 L144.83 18.83 L142.94 26.00 L141.24 26.00 L138.95 17.25 Z M156.26 18.26 Q155.11 18.26 154.44 19.16 Q153.76 20.06 153.76 21.63 Q153.76 23.20 154.43 24.11 Q155.10 25.01 156.26 25.01 Q157.41 25.01 158.08 24.10 Q158.76 23.20 158.76 21.63 Q158.76 20.08 158.08 19.17 Q157.41 18.26 156.26 18.26 Z M156.26 17.04 Q158.14 17.04 159.21 18.26 Q160.28 19.48 160.28 21.63 Q160.28 23.78 159.21 25.00 Q158.14 26.23 156.26 26.23 Q154.38 26.23 153.31 25.00 Q152.25 23.78 152.25 21.63 Q152.25 19.48 153.31 18.26 Q154.38 17.04 156.26 17.04 Z M162.52 22.55 L162.52 17.25 L163.95 17.25 L163.95 22.49 Q163.95 23.73 164.44 24.36 Q164.92 24.98 165.89 24.98 Q167.05 24.98 167.73 24.23 Q168.41 23.49 168.41 22.21 L168.41 17.25 L169.84 17.25 L169.84 26.00 L168.41 26.00 L168.41 24.66 Q167.88 25.45 167.19 25.84 Q166.50 26.23 165.59 26.23 Q164.08 26.23 163.30 25.29 Q162.52 24.35 162.52 22.55 Z M166.13 17.04 L166.13 17.04 Z M172.80 13.84 L174.24 13.84 L174.24 26.00 L172.80 26.00 L172.80 13.84 Z M183.01 18.58 L183.01 13.84 L184.44 13.84 L184.44 26.00 L183.01 26.00 L183.01 24.69 Q182.55 25.47 181.86 25.85 Q181.17 26.23 180.20 26.23 Q178.62 26.23 177.62 24.96 Q176.62 23.70 176.62 21.63 Q176.62 19.57 177.62 18.30 Q178.62 17.04 180.20 17.04 Q181.17 17.04 181.86 17.42 Q182.55 17.80 183.01 18.58 Z M178.11 21.63 Q178.11 23.22 178.76 24.12 Q179.41 25.02 180.55 25.02 Q181.69 25.02 182.35 24.12 Q183.01 23.22 183.01 21.63 Q183.01 20.05 182.35 19.14 Q181.69 18.24 180.55 18.24 Q179.41 18.24 178.76 19.14 Q178.11 20.05 178.11 21.63 Z M198.25 18.58 L198.25 13.84 L199.69 13.84 L199.69 26.00 L198.25 26.00 L198.25 24.69 Q197.80 25.47 197.10 25.85 Q196.41 26.23 195.44 26.23 Q193.86 26.23 192.86 24.96 Q191.87 23.70 191.87 21.63 Q191.87 19.57 192.86 18.30 Q193.86 17.04 195.44 17.04 Q196.41 17.04 197.10 17.42 Q197.80 17.80 198.25 18.58 Z M193.35 21.63 Q193.35 23.22 194.00 24.12 Q194.66 25.02 195.80 25.02 Q196.94 25.02 197.59 24.12 Q198.25 23.22 198.25 21.63 Q198.25 20.05 197.59 19.14 Q196.94 18.24 195.80 18.24 Q194.66 18.24 194.00 19.14 Q193.35 20.05 193.35 21.63 Z M210.13 21.27 L210.13 21.97 L203.52 21.97 Q203.62 23.45 204.42 24.23 Q205.22 25.01 206.65 25.01 Q207.48 25.01 208.25 24.80 Q209.03 24.60 209.80 24.20 L209.80 25.55 Q209.02 25.88 208.21 26.05 Q207.40 26.23 206.56 26.23 Q204.47 26.23 203.25 25.01 Q202.02 23.79 202.02 21.71 Q202.02 19.56 203.18 18.30 Q204.34 17.04 206.31 17.04 Q208.08 17.04 209.11 18.18 Q210.13 19.31 210.13 21.27 Z M208.70 20.84 Q208.68 19.66 208.04 18.96 Q207.39 18.26 206.33 18.26 Q205.13 18.26 204.40 18.94 Q203.68 19.62 203.57 20.85 L208.70 20.84 Z M218.07 17.51 L218.07 18.87 Q217.46 18.55 216.80 18.40 Q216.15 18.24 215.44 18.24 Q214.37 18.24 213.84 18.57 Q213.30 18.90 213.30 19.55 Q213.30 20.05 213.69 20.34 Q214.07 20.62 215.23 20.88 L215.72 20.99 Q217.25 21.32 217.89 21.92 Q218.54 22.52 218.54 23.59 Q218.54 24.80 217.57 25.52 Q216.61 26.23 214.92 26.23 Q214.22 26.23 213.46 26.09 Q212.69 25.95 211.85 25.68 L211.85 24.20 Q212.65 24.61 213.42 24.82 Q214.19 25.02 214.95 25.02 Q215.97 25.02 216.51 24.68 Q217.06 24.33 217.06 23.70 Q217.06 23.11 216.67 22.80 Q216.27 22.48 214.94 22.20 L214.44 22.08 Q213.10 21.80 212.51 21.21 Q211.91 20.63 211.91 19.62 Q211.91 18.38 212.79 17.71 Q213.66 17.04 215.27 17.04 Q216.07 17.04 216.77 17.16 Q217.48 17.27 218.07 17.51 Z M228.31 21.27 L228.31 21.97 L221.70 21.97 Q221.80 23.45 222.60 24.23 Q223.40 25.01 224.83 25.01 Q225.66 25.01 226.43 24.80 Q227.21 24.60 227.98 24.20 L227.98 25.55 Q227.20 25.88 226.39 26.05 Q225.58 26.23 224.74 26.23 Q222.65 26.23 221.43 25.01 Q220.20 23.79 220.20 21.71 Q220.20 19.56 221.36 18.30 Q222.52 17.04 224.49 17.04 Q226.26 17.04 227.29 18.18 Q228.31 19.31 228.31 21.27 Z M226.88 20.84 Q226.86 19.66 226.22 18.96 Q225.57 18.26 224.51 18.26 Q223.31 18.26 222.58 18.94 Q221.86 19.62 221.75 20.85 L226.88 20.84 Z M235.74 18.59 Q235.50 18.45 235.21 18.39 Q234.93 18.32 234.59 18.32 Q233.37 18.32 232.71 19.11 Q232.06 19.91 232.06 21.39 L232.06 26.00 L230.62 26.00 L230.62 17.25 L232.06 17.25 L232.06 18.61 Q232.52 17.81 233.24 17.43 Q233.97 17.04 235.01 17.04 Q235.16 17.04 235.34 17.06 Q235.52 17.08 235.73 17.12 L235.74 18.59 Z M236.22 17.25 L237.74 17.25 L240.48 24.59 L243.21 17.25 L244.73 17.25 L241.45 26.00 L239.50 26.00 L236.22 17.25 Z M254.20 21.27 L254.20 21.97 L247.59 21.97 Q247.69 23.45 248.49 24.23 Q249.29 25.01 250.72 25.01 Q251.55 25.01 252.32 24.80 Q253.10 24.60 253.87 24.20 L253.87 25.55 Q253.09 25.88 252.28 26.05 Q251.47 26.23 250.63 26.23 Q248.54 26.23 247.32 25.01 Q246.09 23.79 246.09 21.71 Q246.09 19.56 247.25 18.30 Q248.41 17.04 250.38 17.04 Q252.15 17.04 253.18 18.18 Q254.20 19.31 254.20 21.27 Z M252.77 20.84 Q252.75 19.66 252.11 18.96 Q251.46 18.26 250.40 18.26 Q249.20 18.26 248.47 18.94 Q247.75 19.62 247.64 20.85 L252.77 20.84 Z M263.07 14.77 L263.07 17.25 L266.03 17.25 L266.03 18.37 L263.07 18.37 L263.07 23.12 Q263.07 24.19 263.36 24.49 Q263.66 24.80 264.56 24.80 L266.03 24.80 L266.03 26.00 L264.56 26.00 Q262.89 26.00 262.26 25.38 Q261.63 24.76 261.63 23.12 L261.63 18.37 L260.57 18.37 L260.57 17.25 L261.63 17.25 L261.63 14.77 L263.07 14.77 Z M271.31 18.26 Q270.16 18.26 269.48 19.16 Q268.81 20.06 268.81 21.63 Q268.81 23.20 269.48 24.11 Q270.15 25.01 271.31 25.01 Q272.46 25.01 273.13 24.10 Q273.80 23.20 273.80 21.63 Q273.80 20.08 273.13 19.17 Q272.46 18.26 271.31 18.26 Z M271.31 17.04 Q273.19 17.04 274.26 18.26 Q275.33 19.48 275.33 21.63 Q275.33 23.78 274.26 25.00 Q273.19 26.23 271.31 26.23 Q269.43 26.23 268.36 25.00 Q267.30 23.78 267.30 21.63 Q267.30 19.48 268.36 18.26 Q269.43 17.04 271.31 17.04 Z M289.08 21.63 Q289.08 20.05 288.43 19.14 Q287.77 18.24 286.63 18.24 Q285.49 18.24 284.84 19.14 Q284.19 20.05 284.19 21.63 Q284.19 23.22 284.84 24.12 Q285.49 25.02 286.63 25.02 Q287.77 25.02 288.43 24.12 Q289.08 23.22 289.08 21.63 Z M284.19 18.58 Q284.64 17.80 285.33 17.42 Q286.02 17.04 286.98 17.04 Q288.58 17.04 289.57 18.30 Q290.57 19.57 290.57 21.63 Q290.57 23.70 289.57 24.96 Q288.58 26.23 286.98 26.23 Q286.02 26.23 285.33 25.85 Q284.64 25.47 284.19 24.69 L284.19 26.00 L282.74 26.00 L282.74 13.84 L284.19 13.84 L284.19 18.58 Z M300.44 21.27 L300.44 21.97 L293.83 21.97 Q293.92 23.45 294.72 24.23 Q295.52 25.01 296.95 25.01 Q297.78 25.01 298.56 24.80 Q299.34 24.60 300.10 24.20 L300.10 25.55 Q299.33 25.88 298.52 26.05 Q297.70 26.23 296.87 26.23 Q294.77 26.23 293.55 25.01 Q292.33 23.79 292.33 21.71 Q292.33 19.56 293.49 18.30 Q294.65 17.04 296.62 17.04 Q298.38 17.04 299.41 18.18 Q300.44 19.31 300.44 21.27 Z M299.00 20.84 Q298.99 19.66 298.34 18.96 Q297.70 18.26 296.63 18.26 Q295.43 18.26 294.71 18.94 Q293.99 19.62 293.88 20.85 L299.00 20.84 Z M314.18 17.59 L314.18 18.93 Q313.57 18.59 312.96 18.43 Q312.35 18.26 311.72 18.26 Q310.32 18.26 309.55 19.14 Q308.77 20.03 308.77 21.63 Q308.77 23.23 309.55 24.12 Q310.32 25.01 311.72 25.01 Q312.35 25.01 312.96 24.84 Q313.57 24.67 314.18 24.34 L314.18 25.66 Q313.58 25.95 312.93 26.09 Q312.29 26.23 311.56 26.23 Q309.58 26.23 308.42 24.98 Q307.26 23.74 307.26 21.63 Q307.26 19.49 308.43 18.27 Q309.61 17.04 311.66 17.04 Q312.32 17.04 312.95 17.18 Q313.58 17.31 314.18 17.59 Z M320.66 21.60 Q318.91 21.60 318.24 22.00 Q317.57 22.40 317.57 23.36 Q317.57 24.12 318.07 24.57 Q318.58 25.02 319.44 25.02 Q320.64 25.02 321.36 24.18 Q322.09 23.33 322.09 21.92 L322.09 21.60 L320.66 21.60 Z M323.52 21.01 L323.52 26.00 L322.09 26.00 L322.09 24.67 Q321.59 25.47 320.86 25.85 Q320.12 26.23 319.06 26.23 Q317.72 26.23 316.92 25.47 Q316.13 24.72 316.13 23.45 Q316.13 21.98 317.12 21.23 Q318.11 20.48 320.07 20.48 L322.09 20.48 L322.09 20.34 Q322.09 19.34 321.43 18.80 Q320.78 18.26 319.60 18.26 Q318.85 18.26 318.14 18.44 Q317.43 18.62 316.77 18.98 L316.77 17.65 Q317.56 17.34 318.30 17.19 Q319.05 17.04 319.75 17.04 Q321.65 17.04 322.59 18.02 Q323.52 19.01 323.52 21.01 Z M326.48 13.84 L327.92 13.84 L327.92 26.00 L326.48 26.00 L326.48 13.84 Z M330.93 13.84 L332.37 13.84 L332.37 26.00 L330.93 26.00 L330.93 13.84 Z M342.86 21.27 L342.86 21.97 L336.25 21.97 Q336.34 23.45 337.14 24.23 Q337.94 25.01 339.37 25.01 Q340.20 25.01 340.98 24.80 Q341.76 24.60 342.52 24.20 L342.52 25.55 Q341.75 25.88 340.94 26.05 Q340.12 26.23 339.29 26.23 Q337.19 26.23 335.97 25.01 Q334.75 23.79 334.75 21.71 Q334.75 19.56 335.91 18.30 Q337.07 17.04 339.04 17.04 Q340.80 17.04 341.83 18.18 Q342.86 19.31 342.86 21.27 Z M341.42 20.84 Q341.41 19.66 340.76 18.96 Q340.12 18.26 339.05 18.26 Q337.85 18.26 337.13 18.94 Q336.41 19.62 336.30 20.85 L341.42 20.84 Z M350.98 18.58 L350.98 13.84 L352.41 13.84 L352.41 26.00 L350.98 26.00 L350.98 24.69 Q350.52 25.47 349.83 25.85 Q349.14 26.23 348.17 26.23 Q346.59 26.23 345.59 24.96 Q344.59 23.70 344.59 21.63 Q344.59 19.57 345.59 18.30 Q346.59 17.04 348.17 17.04 Q349.14 17.04 349.83 17.42 Q350.52 17.80 350.98 18.58 Z M346.08 21.63 Q346.08 23.22 346.73 24.12 Q347.38 25.02 348.52 25.02 Q349.66 25.02 350.32 24.12 Q350.98 23.22 350.98 21.63 Q350.98 20.05 350.32 19.14 Q349.66 18.24 348.52 18.24 Q347.38 18.24 346.73 19.14 Q346.08 20.05 346.08 21.63 Z M360.46 17.25 L361.90 17.25 L361.90 26.00 L360.46 26.00 L360.46 17.25 Z M360.46 13.84 L361.90 13.84 L361.90 15.66 L360.46 15.66 L360.46 13.84 Z M372.18 20.72 L372.18 26.00 L370.74 26.00 L370.74 20.77 Q370.74 19.52 370.26 18.91 Q369.77 18.29 368.81 18.29 Q367.64 18.29 366.97 19.03 Q366.30 19.77 366.30 21.05 L366.30 26.00 L364.85 26.00 L364.85 17.25 L366.30 17.25 L366.30 18.61 Q366.81 17.82 367.51 17.43 Q368.21 17.04 369.13 17.04 Q370.63 17.04 371.41 17.97 Q372.18 18.91 372.18 20.72 Z M376.47 14.77 L376.47 17.25 L379.43 17.25 L379.43 18.37 L376.47 18.37 L376.47 23.12 Q376.47 24.19 376.76 24.49 Q377.05 24.80 377.95 24.80 L379.43 24.80 L379.43 26.00 L377.95 26.00 Q376.29 26.00 375.66 25.38 Q375.02 24.76 375.02 23.12 L375.02 18.37 L373.97 18.37 L373.97 17.25 L375.02 17.25 L375.02 14.77 L376.47 14.77 Z M388.81 21.27 L388.81 21.97 L382.19 21.97 Q382.29 23.45 383.09 24.23 Q383.89 25.01 385.32 25.01 Q386.15 25.01 386.93 24.80 Q387.70 24.60 388.47 24.20 L388.47 25.55 Q387.69 25.88 386.88 26.05 Q386.07 26.23 385.24 26.23 Q383.14 26.23 381.92 25.01 Q380.69 23.79 380.69 21.71 Q380.69 19.56 381.86 18.30 Q383.01 17.04 384.99 17.04 Q386.75 17.04 387.78 18.18 Q388.81 19.31 388.81 21.27 Z M387.37 20.84 Q387.35 19.66 386.71 18.96 Q386.06 18.26 385.00 18.26 Q383.80 18.26 383.07 18.94 Q382.35 19.62 382.24 20.85 L387.37 20.84 Z M391.16 13.84 L392.60 13.84 L392.60 26.00 L391.16 26.00 L391.16 13.84 Z M395.61 13.84 L397.05 13.84 L397.05 26.00 L395.61 26.00 L395.61 13.84 Z M400.05 17.25 L401.49 17.25 L401.49 26.00 L400.05 26.00 L400.05 17.25 Z M400.05 13.84 L401.49 13.84 L401.49 15.66 L400.05 15.66 L400.05 13.84 Z M410.26 21.52 Q410.26 19.96 409.61 19.10 Q408.97 18.24 407.80 18.24 Q406.65 18.24 406.00 19.10 Q405.36 19.96 405.36 21.52 Q405.36 23.08 406.00 23.94 Q406.65 24.80 407.80 24.80 Q408.97 24.80 409.61 23.94 Q410.26 23.08 410.26 21.52 Z M411.69 24.91 Q411.69 27.15 410.70 28.24 Q409.71 29.33 407.66 29.33 Q406.91 29.33 406.23 29.21 Q405.56 29.10 404.93 28.87 L404.93 27.47 Q405.56 27.81 406.18 27.98 Q406.80 28.14 407.44 28.14 Q408.85 28.14 409.55 27.40 Q410.26 26.66 410.26 25.17 L410.26 24.46 Q409.81 25.23 409.12 25.62 Q408.42 26.00 407.45 26.00 Q405.84 26.00 404.86 24.77 Q403.87 23.55 403.87 21.52 Q403.87 19.49 404.86 18.27 Q405.84 17.04 407.45 17.04 Q408.42 17.04 409.12 17.42 Q409.81 17.80 410.26 18.58 L410.26 17.25 L411.69 17.25 L411.69 24.91 Z M422.14 21.27 L422.14 21.97 L415.53 21.97 Q415.63 23.45 416.43 24.23 Q417.23 25.01 418.66 25.01 Q419.48 25.01 420.26 24.80 Q421.04 24.60 421.81 24.20 L421.81 25.55 Q421.03 25.88 420.22 26.05 Q419.41 26.23 418.57 26.23 Q416.48 26.23 415.25 25.01 Q414.03 23.79 414.03 21.71 Q414.03 19.56 415.19 18.30 Q416.35 17.04 418.32 17.04 Q420.09 17.04 421.11 18.18 Q422.14 19.31 422.14 21.27 Z M420.70 20.84 Q420.69 19.66 420.04 18.96 Q419.40 18.26 418.34 18.26 Q417.13 18.26 416.41 18.94 Q415.69 19.62 415.58 20.85 L420.70 20.84 Z M431.77 20.72 L431.77 26.00 L430.34 26.00 L430.34 20.77 Q430.34 19.52 429.85 18.91 Q429.37 18.29 428.40 18.29 Q427.23 18.29 426.56 19.03 Q425.89 19.77 425.89 21.05 L425.89 26.00 L424.44 26.00 L424.44 17.25 L425.89 17.25 L425.89 18.61 Q426.41 17.82 427.10 17.43 Q427.80 17.04 428.72 17.04 Q430.23 17.04 431.00 17.97 Q431.77 18.91 431.77 20.72 Z M436.06 14.77 L436.06 17.25 L439.02 17.25 L439.02 18.37 L436.06 18.37 L436.06 23.12 Q436.06 24.19 436.36 24.49 Q436.65 24.80 437.55 24.80 L439.02 24.80 L439.02 26.00 L437.55 26.00 Q435.88 26.00 435.25 25.38 Q434.62 24.76 434.62 23.12 L434.62 18.37 L433.56 18.37 L433.56 17.25 L434.62 17.25 L434.62 14.77 L436.06 14.77 Z M446.00 17.25 L447.44 17.25 L447.44 26.00 L446.00 26.00 L446.00 17.25 Z M446.00 13.84 L447.44 13.84 L447.44 15.66 L446.00 15.66 L446.00 13.84 Z M454.88 13.84 L454.88 15.04 L453.50 15.04 Q452.73 15.04 452.43 15.35 Q452.12 15.66 452.12 16.48 L452.12 17.25 L454.49 17.25 L454.49 18.37 L452.12 18.37 L452.12 26.00 L450.68 26.00 L450.68 18.37 L449.31 18.37 L449.31 17.25 L450.68 17.25 L450.68 16.64 Q450.68 15.18 451.36 14.51 Q452.04 13.84 453.51 13.84 L454.88 13.84 Z M461.16 17.25 L462.60 17.25 L462.60 26.00 L461.16 26.00 L461.16 17.25 Z M461.16 13.84 L462.60 13.84 L462.60 15.66 L461.16 15.66 L461.16 13.84 Z M467.03 14.77 L467.03 17.25 L469.99 17.25 L469.99 18.37 L467.03 18.37 L467.03 23.12 Q467.03 24.19 467.32 24.49 Q467.62 24.80 468.52 24.80 L469.99 24.80 L469.99 26.00 L468.52 26.00 Q466.85 26.00 466.22 25.38 Q465.59 24.76 465.59 23.12 L465.59 18.37 L464.53 18.37 L464.53 17.25 L465.59 17.25 L465.59 14.77 L467.03 14.77 Z M483.27 17.59 L483.27 18.93 Q482.66 18.59 482.04 18.43 Q481.43 18.26 480.81 18.26 Q479.41 18.26 478.63 19.14 Q477.86 20.03 477.86 21.63 Q477.86 23.23 478.63 24.12 Q479.41 25.01 480.81 25.01 Q481.43 25.01 482.04 24.84 Q482.66 24.67 483.27 24.34 L483.27 25.66 Q482.66 25.95 482.02 26.09 Q481.38 26.23 480.65 26.23 Q478.67 26.23 477.51 24.98 Q476.34 23.74 476.34 21.63 Q476.34 19.49 477.52 18.27 Q478.70 17.04 480.74 17.04 Q481.41 17.04 482.04 17.18 Q482.67 17.31 483.27 17.59 Z M489.16 18.26 Q488.00 18.26 487.33 19.16 Q486.66 20.06 486.66 21.63 Q486.66 23.20 487.32 24.11 Q487.99 25.01 489.16 25.01 Q490.31 25.01 490.98 24.10 Q491.65 23.20 491.65 21.63 Q491.65 20.08 490.98 19.17 Q490.31 18.26 489.16 18.26 Z M489.16 17.04 Q491.03 17.04 492.10 18.26 Q493.17 19.48 493.17 21.63 Q493.17 23.78 492.10 25.00 Q491.03 26.23 489.16 26.23 Q487.27 26.23 486.21 25.00 Q485.14 23.78 485.14 21.63 Q485.14 19.48 486.21 18.26 Q487.27 17.04 489.16 17.04 Z M495.41 22.55 L495.41 17.25 L496.84 17.25 L496.84 22.49 Q496.84 23.73 497.33 24.36 Q497.81 24.98 498.78 24.98 Q499.94 24.98 500.62 24.23 Q501.30 23.49 501.30 22.21 L501.30 17.25 L502.73 17.25 L502.73 26.00 L501.30 26.00 L501.30 24.66 Q500.77 25.45 500.08 25.84 Q499.39 26.23 498.48 26.23 Q496.97 26.23 496.19 25.29 Q495.41 24.35 495.41 22.55 Z M499.02 17.04 L499.02 17.04 Z M505.69 13.84 L507.13 13.84 L507.13 26.00 L505.69 26.00 L505.69 13.84 Z M515.90 18.58 L515.90 13.84 L517.34 13.84 L517.34 26.00 L515.90 26.00 L515.90 24.69 Q515.45 25.47 514.75 25.85 Q514.06 26.23 513.09 26.23 Q511.51 26.23 510.51 24.96 Q509.52 23.70 509.52 21.63 Q509.52 19.57 510.51 18.30 Q511.51 17.04 513.09 17.04 Q514.06 17.04 514.75 17.42 Q515.45 17.80 515.90 18.58 Z M511.00 21.63 Q511.00 23.22 511.65 24.12 Q512.31 25.02 513.45 25.02 Q514.59 25.02 515.24 24.12 Q515.90 23.22 515.90 21.63 Q515.90 20.05 515.24 19.14 Q514.59 18.24 513.45 18.24 Q512.31 18.24 511.65 19.14 Q511.00 20.05 511.00 21.63 Z M531.14 18.58 L531.14 13.84 L532.58 13.84 L532.58 26.00 L531.14 26.00 L531.14 24.69 Q530.69 25.47 530.00 25.85 Q529.31 26.23 528.34 26.23 Q526.75 26.23 525.75 24.96 Q524.76 23.70 524.76 21.63 Q524.76 19.57 525.75 18.30 Q526.75 17.04 528.34 17.04 Q529.31 17.04 530.00 17.42 Q530.69 17.80 531.14 18.58 Z M526.24 21.63 Q526.24 23.22 526.89 24.12 Q527.55 25.02 528.69 25.02 Q529.83 25.02 530.48 24.12 Q531.14 23.22 531.14 21.63 Q531.14 20.05 530.48 19.14 Q529.83 18.24 528.69 18.24 Q527.55 18.24 526.89 19.14 Q526.24 20.05 526.24 21.63 Z M543.02 21.27 L543.02 21.97 L536.41 21.97 Q536.51 23.45 537.31 24.23 Q538.11 25.01 539.54 25.01 Q540.37 25.01 541.14 24.80 Q541.92 24.60 542.69 24.20 L542.69 25.55 Q541.91 25.88 541.10 26.05 Q540.29 26.23 539.45 26.23 Q537.36 26.23 536.14 25.01 Q534.91 23.79 534.91 21.71 Q534.91 19.56 536.07 18.30 Q537.23 17.04 539.20 17.04 Q540.97 17.04 542.00 18.18 Q543.02 19.31 543.02 21.27 Z M541.59 20.84 Q541.57 19.66 540.93 18.96 Q540.28 18.26 539.22 18.26 Q538.02 18.26 537.29 18.94 Q536.57 19.62 536.46 20.85 L541.59 20.84 Z M551.68 17.59 L551.68 18.93 Q551.07 18.59 550.46 18.43 Q549.85 18.26 549.22 18.26 Q547.82 18.26 547.05 19.14 Q546.27 20.03 546.27 21.63 Q546.27 23.23 547.05 24.12 Q547.82 25.01 549.22 25.01 Q549.85 25.01 550.46 24.84 Q551.07 24.67 551.68 24.34 L551.68 25.66 Q551.08 25.95 550.43 26.09 Q549.79 26.23 549.06 26.23 Q547.09 26.23 545.92 24.98 Q544.76 23.74 544.76 21.63 Q544.76 19.49 545.93 18.27 Q547.11 17.04 549.16 17.04 Q549.82 17.04 550.45 17.18 Q551.09 17.31 551.68 17.59 Z M561.66 21.27 L561.66 21.97 L555.05 21.97 Q555.15 23.45 555.95 24.23 Q556.75 25.01 558.18 25.01 Q559.01 25.01 559.78 24.80 Q560.56 24.60 561.33 24.20 L561.33 25.55 Q560.55 25.88 559.74 26.05 Q558.93 26.23 558.09 26.23 Q556.00 26.23 554.78 25.01 Q553.55 23.79 553.55 21.71 Q553.55 19.56 554.71 18.30 Q555.87 17.04 557.84 17.04 Q559.61 17.04 560.64 18.18 Q561.66 19.31 561.66 21.27 Z M560.23 20.84 Q560.21 19.66 559.57 18.96 Q558.92 18.26 557.86 18.26 Q556.66 18.26 555.93 18.94 Q555.21 19.62 555.10 20.85 L560.23 20.84 Z M564.02 17.25 L565.46 17.25 L565.46 26.00 L564.02 26.00 L564.02 17.25 Z M564.02 13.84 L565.46 13.84 L565.46 15.66 L564.02 15.66 L564.02 13.84 Z M567.44 17.25 L568.96 17.25 L571.70 24.59 L574.43 17.25 L575.95 17.25 L572.67 26.00 L570.72 26.00 L567.44 17.25 Z M585.42 21.27 L585.42 21.97 L578.81 21.97 Q578.91 23.45 579.71 24.23 Q580.51 25.01 581.94 25.01 Q582.76 25.01 583.54 24.80 Q584.32 24.60 585.09 24.20 L585.09 25.55 Q584.31 25.88 583.50 26.05 Q582.69 26.23 581.85 26.23 Q579.76 26.23 578.53 25.01 Q577.31 23.79 577.31 21.71 Q577.31 19.56 578.47 18.30 Q579.63 17.04 581.60 17.04 Q583.37 17.04 584.39 18.18 Q585.42 19.31 585.42 21.27 Z M583.98 20.84 Q583.97 19.66 583.32 18.96 Q582.68 18.26 581.62 18.26 Q580.41 18.26 579.69 18.94 Q578.97 19.62 578.86 20.85 L583.98 20.84 Z M596.84 21.60 Q595.10 21.60 594.43 22.00 Q593.76 22.40 593.76 23.36 Q593.76 24.12 594.26 24.57 Q594.77 25.02 595.63 25.02 Q596.83 25.02 597.55 24.18 Q598.27 23.33 598.27 21.92 L598.27 21.60 L596.84 21.60 Z M599.71 21.01 L599.71 26.00 L598.27 26.00 L598.27 24.67 Q597.78 25.47 597.05 25.85 Q596.31 26.23 595.25 26.23 Q593.91 26.23 593.11 25.47 Q592.32 24.72 592.32 23.45 Q592.32 21.98 593.31 21.23 Q594.30 20.48 596.26 20.48 L598.27 20.48 L598.27 20.34 Q598.27 19.34 597.62 18.80 Q596.97 18.26 595.79 18.26 Q595.04 18.26 594.33 18.44 Q593.62 18.62 592.96 18.98 L592.96 17.65 Q593.75 17.34 594.49 17.19 Q595.23 17.04 595.94 17.04 Q597.84 17.04 598.77 18.02 Q599.71 19.01 599.71 21.01 Z M615.03 20.72 L615.03 26.00 L613.60 26.00 L613.60 20.77 Q613.60 19.52 613.11 18.91 Q612.62 18.29 611.66 18.29 Q610.49 18.29 609.82 19.03 Q609.15 19.77 609.15 21.05 L609.15 26.00 L607.70 26.00 L607.70 13.84 L609.15 13.84 L609.15 18.61 Q609.66 17.82 610.36 17.43 Q611.06 17.04 611.98 17.04 Q613.49 17.04 614.26 17.97 Q615.03 18.91 615.03 20.72 Z M617.75 22.55 L617.75 17.25 L619.19 17.25 L619.19 22.49 Q619.19 23.73 619.67 24.36 Q620.16 24.98 621.13 24.98 Q622.29 24.98 622.96 24.23 Q623.64 23.49 623.64 22.21 L623.64 17.25 L625.08 17.25 L625.08 26.00 L623.64 26.00 L623.64 24.66 Q623.12 25.45 622.43 25.84 Q621.74 26.23 620.82 26.23 Q619.31 26.23 618.53 25.29 Q617.75 24.35 617.75 22.55 Z M621.37 17.04 L621.37 17.04 Z M634.85 18.93 Q635.39 17.96 636.14 17.50 Q636.89 17.04 637.91 17.04 Q639.27 17.04 640.02 18.00 Q640.76 18.95 640.76 20.72 L640.76 26.00 L639.31 26.00 L639.31 20.77 Q639.31 19.51 638.87 18.90 Q638.42 18.29 637.51 18.29 Q636.39 18.29 635.74 19.03 Q635.09 19.77 635.09 21.05 L635.09 26.00 L633.65 26.00 L633.65 20.77 Q633.65 19.50 633.20 18.89 Q632.76 18.29 631.83 18.29 Q630.73 18.29 630.08 19.04 Q629.43 19.78 629.43 21.05 L629.43 26.00 L627.98 26.00 L627.98 17.25 L629.43 17.25 L629.43 18.61 Q629.92 17.80 630.61 17.42 Q631.30 17.04 632.24 17.04 Q633.20 17.04 633.86 17.52 Q634.53 18.01 634.85 18.93 Z M647.60 21.60 Q645.86 21.60 645.19 22.00 Q644.51 22.40 644.51 23.36 Q644.51 24.12 645.02 24.57 Q645.52 25.02 646.39 25.02 Q647.59 25.02 648.31 24.18 Q649.03 23.33 649.03 21.92 L649.03 21.60 L647.60 21.60 Z M650.47 21.01 L650.47 26.00 L649.03 26.00 L649.03 24.67 Q648.54 25.47 647.80 25.85 Q647.07 26.23 646.01 26.23 Q644.66 26.23 643.87 25.47 Q643.08 24.72 643.08 23.45 Q643.08 21.98 644.06 21.23 Q645.05 20.48 647.01 20.48 L649.03 20.48 L649.03 20.34 Q649.03 19.34 648.38 18.80 Q647.73 18.26 646.55 18.26 Q645.80 18.26 645.08 18.44 Q644.37 18.62 643.72 18.98 L643.72 17.65 Q644.51 17.34 645.25 17.19 Q645.99 17.04 646.69 17.04 Q648.59 17.04 649.53 18.02 Q650.47 19.01 650.47 21.01 Z M660.70 20.72 L660.70 26.00 L659.27 26.00 L659.27 20.77 Q659.27 19.52 658.78 18.91 Q658.30 18.29 657.33 18.29 Q656.16 18.29 655.49 19.03 Q654.82 19.77 654.82 21.05 L654.82 26.00 L653.37 26.00 L653.37 17.25 L654.82 17.25 L654.82 18.61 Q655.34 17.82 656.03 17.43 Q656.73 17.04 657.65 17.04 Q659.16 17.04 659.93 17.97 Q660.70 18.91 660.70 20.72 Z M668.66 17.25 L670.09 17.25 L670.09 26.00 L668.66 26.00 L668.66 17.25 Z M668.66 13.84 L670.09 13.84 L670.09 15.66 L668.66 15.66 L668.66 13.84 Z M680.38 20.72 L680.38 26.00 L678.94 26.00 L678.94 20.77 Q678.94 19.52 678.45 18.91 Q677.97 18.29 677.00 18.29 Q675.84 18.29 675.16 19.03 Q674.49 19.77 674.49 21.05 L674.49 26.00 L673.05 26.00 L673.05 17.25 L674.49 17.25 L674.49 18.61 Q675.01 17.82 675.71 17.43 Q676.41 17.04 677.32 17.04 Q678.83 17.04 679.60 17.97 Q680.38 18.91 680.38 20.72 Z M684.66 14.77 L684.66 17.25 L687.62 17.25 L687.62 18.37 L684.66 18.37 L684.66 23.12 Q684.66 24.19 684.96 24.49 Q685.25 24.80 686.15 24.80 L687.62 24.80 L687.62 26.00 L686.15 26.00 Q684.48 26.00 683.85 25.38 Q683.22 24.76 683.22 23.12 L683.22 18.37 L682.16 18.37 L682.16 17.25 L683.22 17.25 L683.22 14.77 L684.66 14.77 Z M692.91 18.26 Q691.75 18.26 691.08 19.16 Q690.41 20.06 690.41 21.63 Q690.41 23.20 691.07 24.11 Q691.74 25.01 692.91 25.01 Q694.06 25.01 694.73 24.10 Q695.40 23.20 695.40 21.63 Q695.40 20.08 694.73 19.17 Q694.06 18.26 692.91 18.26 Z M692.91 17.04 Q694.78 17.04 695.85 18.26 Q696.92 19.48 696.92 21.63 Q696.92 23.78 695.85 25.00 Q694.78 26.23 692.91 26.23 Q691.02 26.23 689.96 25.00 Q688.89 23.78 688.89 21.63 Q688.89 19.48 689.96 18.26 Q691.02 17.04 692.91 17.04 Z M710.67 21.63 Q710.67 20.05 710.02 19.14 Q709.37 18.24 708.23 18.24 Q707.09 18.24 706.43 19.14 Q705.78 20.05 705.78 21.63 Q705.78 23.22 706.43 24.12 Q707.09 25.02 708.23 25.02 Q709.37 25.02 710.02 24.12 Q710.67 23.22 710.67 21.63 Z M705.78 18.58 Q706.24 17.80 706.93 17.42 Q707.62 17.04 708.58 17.04 Q710.17 17.04 711.17 18.30 Q712.17 19.57 712.17 21.63 Q712.17 23.70 711.17 24.96 Q710.17 26.23 708.58 26.23 Q707.62 26.23 706.93 25.85 Q706.24 25.47 705.78 24.69 L705.78 26.00 L704.34 26.00 L704.34 13.84 L705.78 13.84 L705.78 18.58 Z M722.03 21.27 L722.03 21.97 L715.42 21.97 Q715.52 23.45 716.32 24.23 Q717.12 25.01 718.55 25.01 Q719.37 25.01 720.15 24.80 Q720.93 24.60 721.70 24.20 L721.70 25.55 Q720.92 25.88 720.11 26.05 Q719.30 26.23 718.46 26.23 Q716.37 26.23 715.14 25.01 Q713.92 23.79 713.92 21.71 Q713.92 19.56 715.08 18.30 Q716.24 17.04 718.21 17.04 Q719.98 17.04 721.00 18.18 Q722.03 19.31 722.03 21.27 Z M720.59 20.84 Q720.58 19.66 719.93 18.96 Q719.29 18.26 718.23 18.26 Q717.02 18.26 716.30 18.94 Q715.58 19.62 715.47 20.85 L720.59 20.84 Z M724.39 13.84 L725.83 13.84 L725.83 26.00 L724.39 26.00 L724.39 13.84 Z M728.84 17.25 L730.27 17.25 L730.27 26.00 L728.84 26.00 L728.84 17.25 Z M728.84 13.84 L730.27 13.84 L730.27 15.66 L728.84 15.66 L728.84 13.84 Z M740.77 21.27 L740.77 21.97 L734.16 21.97 Q734.25 23.45 735.05 24.23 Q735.85 25.01 737.28 25.01 Q738.11 25.01 738.89 24.80 Q739.66 24.60 740.43 24.20 L740.43 25.55 Q739.66 25.88 738.84 26.05 Q738.03 26.23 737.20 26.23 Q735.10 26.23 733.88 25.01 Q732.66 23.79 732.66 21.71 Q732.66 19.56 733.82 18.30 Q734.98 17.04 736.95 17.04 Q738.71 17.04 739.74 18.18 Q740.77 19.31 740.77 21.27 Z M739.33 20.84 Q739.31 19.66 738.67 18.96 Q738.02 18.26 736.96 18.26 Q735.76 18.26 735.04 18.94 Q734.31 19.62 734.20 20.85 L739.33 20.84 Z M742.09 17.25 L743.62 17.25 L746.35 24.59 L749.09 17.25 L750.61 17.25 L747.33 26.00 L745.37 26.00 L742.09 17.25 Z M752.59 17.25 L754.03 17.25 L754.03 26.00 L752.59 26.00 L752.59 17.25 Z M752.59 13.84 L754.03 13.84 L754.03 15.66 L752.59 15.66 L752.59 13.84 Z M764.31 20.72 L764.31 26.00 L762.88 26.00 L762.88 20.77 Q762.88 19.52 762.39 18.91 Q761.91 18.29 760.94 18.29 Q759.77 18.29 759.10 19.03 Q758.43 19.77 758.43 21.05 L758.43 26.00 L756.98 26.00 L756.98 17.25 L758.43 17.25 L758.43 18.61 Q758.95 17.82 759.64 17.43 Q760.34 17.04 761.26 17.04 Q762.77 17.04 763.54 17.97 Q764.31 18.91 764.31 20.72 Z M772.94 21.52 Q772.94 19.96 772.29 19.10 Q771.65 18.24 770.48 18.24 Q769.33 18.24 768.68 19.10 Q768.04 19.96 768.04 21.52 Q768.04 23.08 768.68 23.94 Q769.33 24.80 770.48 24.80 Q771.65 24.80 772.29 23.94 Q772.94 23.08 772.94 21.52 Z M774.37 24.91 Q774.37 27.15 773.38 28.24 Q772.39 29.33 770.34 29.33 Q769.59 29.33 768.91 29.21 Q768.24 29.10 767.61 28.87 L767.61 27.47 Q768.24 27.81 768.86 27.98 Q769.48 28.14 770.12 28.14 Q771.53 28.14 772.23 27.40 Q772.94 26.66 772.94 25.17 L772.94 24.46 Q772.49 25.23 771.80 25.62 Q771.10 26.00 770.13 26.00 Q768.52 26.00 767.54 24.77 Q766.55 23.55 766.55 21.52 Q766.55 19.49 767.54 18.27 Q768.52 17.04 770.13 17.04 Q771.10 17.04 771.80 17.42 Q772.49 17.80 772.94 18.58 L772.94 17.25 L774.37 17.25 L774.37 24.91 Z M782.42 17.25 L783.86 17.25 L783.86 26.00 L782.42 26.00 L782.42 17.25 Z M782.42 13.84 L783.86 13.84 L783.86 15.66 L782.42 15.66 L782.42 13.84 Z M788.29 14.77 L788.29 17.25 L791.25 17.25 L791.25 18.37 L788.29 18.37 L788.29 23.12 Q788.29 24.19 788.58 24.49 Q788.87 24.80 789.77 24.80 L791.25 24.80 L791.25 26.00 L789.77 26.00 Q788.11 26.00 787.48 25.38 Q786.84 24.76 786.84 23.12 L786.84 18.37 L785.79 18.37 L785.79 17.25 L786.84 17.25 L786.84 14.77 L788.29 14.77 Z M797.39 17.25 L798.83 17.25 L800.63 24.08 L802.41 17.25 L804.11 17.25 L805.91 24.08 L807.70 17.25 L809.13 17.25 L806.84 26.00 L805.15 26.00 L803.27 18.83 L801.38 26.00 L799.68 26.00 L797.39 17.25 Z M815.29 21.60 Q813.55 21.60 812.87 22.00 Q812.20 22.40 812.20 23.36 Q812.20 24.12 812.71 24.57 Q813.21 25.02 814.08 25.02 Q815.27 25.02 816.00 24.18 Q816.72 23.33 816.72 21.92 L816.72 21.60 L815.29 21.60 Z M818.16 21.01 L818.16 26.00 L816.72 26.00 L816.72 24.67 Q816.23 25.47 815.49 25.85 Q814.76 26.23 813.69 26.23 Q812.35 26.23 811.56 25.47 Q810.76 24.72 810.76 23.45 Q810.76 21.98 811.75 21.23 Q812.74 20.48 814.70 20.48 L816.72 20.48 L816.72 20.34 Q816.72 19.34 816.07 18.80 Q815.41 18.26 814.23 18.26 Q813.48 18.26 812.77 18.44 Q812.06 18.62 811.41 18.98 L811.41 17.65 Q812.19 17.34 812.94 17.19 Q813.68 17.04 814.38 17.04 Q816.28 17.04 817.22 18.02 Q818.16 19.01 818.16 21.01 Z M826.69 17.51 L826.69 18.87 Q826.09 18.55 825.43 18.40 Q824.77 18.24 824.07 18.24 Q823.00 18.24 822.46 18.57 Q821.93 18.90 821.93 19.55 Q821.93 20.05 822.31 20.34 Q822.69 20.62 823.85 20.88 L824.34 20.99 Q825.87 21.32 826.52 21.92 Q827.16 22.52 827.16 23.59 Q827.16 24.80 826.20 25.52 Q825.23 26.23 823.55 26.23 Q822.84 26.23 822.08 26.09 Q821.32 25.95 820.48 25.68 L820.48 24.20 Q821.27 24.61 822.05 24.82 Q822.82 25.02 823.58 25.02 Q824.59 25.02 825.14 24.68 Q825.69 24.33 825.69 23.70 Q825.69 23.11 825.29 22.80 Q824.90 22.48 823.56 22.20 L823.06 22.08 Q821.73 21.80 821.13 21.21 Q820.54 20.63 820.54 19.62 Q820.54 18.38 821.41 17.71 Q822.29 17.04 823.90 17.04 Q824.69 17.04 825.40 17.16 Q826.10 17.27 826.69 17.51 Z M841.81 20.72 L841.81 26.00 L840.38 26.00 L840.38 20.77 Q840.38 19.52 839.89 18.91 Q839.41 18.29 838.44 18.29 Q837.27 18.29 836.60 19.03 Q835.93 19.77 835.93 21.05 L835.93 26.00 L834.48 26.00 L834.48 13.84 L835.93 13.84 L835.93 18.61 Q836.45 17.82 837.14 17.43 Q837.84 17.04 838.76 17.04 Q840.27 17.04 841.04 17.97 Q841.81 18.91 841.81 20.72 Z M844.53 22.55 L844.53 17.25 L845.97 17.25 L845.97 22.49 Q845.97 23.73 846.45 24.36 Q846.94 24.98 847.91 24.98 Q849.07 24.98 849.74 24.23 Q850.42 23.49 850.42 22.21 L850.42 17.25 L851.86 17.25 L851.86 26.00 L850.42 26.00 L850.42 24.66 Q849.90 25.45 849.21 25.84 Q848.52 26.23 847.60 26.23 Q846.09 26.23 845.31 25.29 Q844.53 24.35 844.53 22.55 Z M848.15 17.04 L848.15 17.04 Z M861.63 18.93 Q862.17 17.96 862.92 17.50 Q863.67 17.04 864.69 17.04 Q866.06 17.04 866.80 18.00 Q867.54 18.95 867.54 20.72 L867.54 26.00 L866.10 26.00 L866.10 20.77 Q866.10 19.51 865.65 18.90 Q865.20 18.29 864.29 18.29 Q863.17 18.29 862.52 19.03 Q861.88 19.77 861.88 21.05 L861.88 26.00 L860.43 26.00 L860.43 20.77 Q860.43 19.50 859.99 18.89 Q859.54 18.29 858.61 18.29 Q857.51 18.29 856.86 19.04 Q856.21 19.78 856.21 21.05 L856.21 26.00 L854.76 26.00 L854.76 17.25 L856.21 17.25 L856.21 18.61 Q856.70 17.80 857.39 17.42 Q858.08 17.04 859.02 17.04 Q859.98 17.04 860.64 17.52 Q861.31 18.01 861.63 18.93 Z M874.38 21.60 Q872.64 21.60 871.97 22.00 Q871.30 22.40 871.30 23.36 Q871.30 24.12 871.80 24.57 Q872.31 25.02 873.17 25.02 Q874.37 25.02 875.09 24.18 Q875.81 23.33 875.81 21.92 L875.81 21.60 L874.38 21.60 Z M877.25 21.01 L877.25 26.00 L875.81 26.00 L875.81 24.67 Q875.32 25.47 874.59 25.85 Q873.85 26.23 872.79 26.23 Q871.45 26.23 870.65 25.47 Q869.86 24.72 869.86 23.45 Q869.86 21.98 870.85 21.23 Q871.84 20.48 873.80 20.48 L875.81 20.48 L875.81 20.34 Q875.81 19.34 875.16 18.80 Q874.51 18.26 873.33 18.26 Q872.58 18.26 871.87 18.44 Q871.16 18.62 870.50 18.98 L870.50 17.65 Q871.29 17.34 872.03 17.19 Q872.77 17.04 873.48 17.04 Q875.38 17.04 876.31 18.02 Q877.25 19.01 877.25 21.01 Z M887.49 20.72 L887.49 26.00 L886.05 26.00 L886.05 20.77 Q886.05 19.52 885.56 18.91 Q885.08 18.29 884.11 18.29 Q882.95 18.29 882.27 19.03 Q881.60 19.77 881.60 21.05 L881.60 26.00 L880.16 26.00 L880.16 17.25 L881.60 17.25 L881.60 18.61 Q882.12 17.82 882.82 17.43 Q883.52 17.04 884.43 17.04 Q885.94 17.04 886.71 17.97 Q887.49 18.91 887.49 20.72 Z M890.55 24.02 L892.20 24.02 L892.20 26.00 L890.55 26.00 L890.55 24.02 Z" fill="#8b929c"/>
 <path d="M794.17 50.54 L790.94 50.54 L790.43 52.00 L788.35 52.00 L791.32 43.98 L793.79 43.98 L796.76 52.00 L794.68 52.00 L794.17 50.54 Z M791.46 49.05 L793.65 49.05 L792.56 45.86 L791.46 49.05 Z M800.27 43.98 L802.33 43.98 L802.33 50.44 L805.96 50.44 L805.96 52.00 L800.27 52.00 L800.27 43.98 Z M814.34 50.54 L811.11 50.54 L810.60 52.00 L808.52 52.00 L811.49 43.98 L813.95 43.98 L816.92 52.00 L814.85 52.00 L814.34 50.54 Z M811.62 49.05 L813.82 49.05 L812.72 45.86 L811.62 49.05 Z M820.43 43.98 L822.74 43.98 L825.66 49.48 L825.66 43.98 L827.62 43.98 L827.62 52.00 L825.31 52.00 L822.39 46.50 L822.39 52.00 L820.43 52.00 L820.43 43.98 Z M836.52 43.98 L843.91 43.98 L843.91 45.54 L841.26 45.54 L841.26 52.00 L839.19 52.00 L839.19 45.54 L836.52 45.54 L836.52 43.98 Z M847.43 43.98 L849.49 43.98 L849.49 48.79 Q849.49 49.78 849.82 50.21 Q850.14 50.64 850.88 50.64 Q851.62 50.64 851.94 50.21 Q852.27 49.78 852.27 48.79 L852.27 43.98 L854.34 43.98 L854.34 48.79 Q854.34 50.49 853.48 51.32 Q852.63 52.16 850.88 52.16 Q849.13 52.16 848.28 51.32 Q847.43 50.49 847.43 48.79 L847.43 43.98 Z M860.78 47.54 Q861.43 47.54 861.72 47.30 Q862.00 47.05 862.00 46.50 Q862.00 45.95 861.72 45.72 Q861.43 45.48 860.78 45.48 L859.91 45.48 L859.91 47.54 L860.78 47.54 Z M859.91 48.96 L859.91 52.00 L857.85 52.00 L857.85 43.98 L861.00 43.98 Q862.59 43.98 863.33 44.51 Q864.07 45.04 864.07 46.19 Q864.07 46.99 863.68 47.50 Q863.30 48.01 862.52 48.25 Q862.95 48.35 863.28 48.69 Q863.62 49.03 863.96 49.72 L865.09 52.00 L862.88 52.00 L861.91 50.01 Q861.61 49.41 861.31 49.19 Q861.00 48.96 860.50 48.96 L859.91 48.96 Z M868.60 43.98 L870.66 43.98 L870.66 52.00 L868.60 52.00 L868.60 43.98 Z M874.18 43.98 L876.48 43.98 L879.40 49.48 L879.40 43.98 L881.36 43.98 L881.36 52.00 L879.05 52.00 L876.13 46.50 L876.13 52.00 L874.18 52.00 L874.18 43.98 Z M892.08 51.40 Q891.31 51.78 890.47 51.97 Q889.64 52.16 888.75 52.16 Q886.75 52.16 885.58 51.04 Q884.41 49.92 884.41 48.00 Q884.41 46.06 885.60 44.95 Q886.79 43.84 888.87 43.84 Q889.67 43.84 890.40 43.99 Q891.13 44.14 891.78 44.43 L891.78 46.09 Q891.11 45.71 890.45 45.52 Q889.79 45.33 889.12 45.33 Q887.89 45.33 887.22 46.03 Q886.55 46.71 886.55 48.00 Q886.55 49.27 887.19 49.97 Q887.84 50.66 889.02 50.66 Q889.35 50.66 889.62 50.62 Q889.90 50.58 890.12 50.49 L890.12 48.93 L888.86 48.93 L888.86 47.55 L892.08 47.55 L892.08 51.40 Z" fill="#6f8bad"/>
</svg>