<svg viewBox="0 0 480 188" xmlns="http://www.w3.org/2000/svg" fill="none">
  <style>
    .lbl { font: 600 14px 'Segoe UI',Ubuntu,Helvetica,Arial,sans-serif; }
    .val { font: 700 17px 'Segoe UI',Ubuntu,Helvetica,Arial,sans-serif; fill:#7d8590; }
  </style>
  <line x1="8" y1="43" x2="472" y2="43" stroke="#8a8f98" stroke-opacity="0.08"/>
  <line x1="8" y1="79" x2="472" y2="79" stroke="#8a8f98" stroke-opacity="0.08"/>
  <line x1="8" y1="115" x2="472" y2="115" stroke="#8a8f98" stroke-opacity="0.08"/>
  <line x1="8" y1="151" x2="472" y2="151" stroke="#8a8f98" stroke-opacity="0.08"/>
  <g transform="translate(6,14) scale(0.75)" stroke="#bf7257" stroke-width="2" fill="none" stroke-linecap="round" stroke-linejoin="round"><path d="M11.525 2.295a.53.53 0 0 1 .95 0l2.31 4.679a2.123 2.123 0 0 0 1.595 1.16l5.166.756a.53.53 0 0 1 .294.904l-3.736 3.638a2.123 2.123 0 0 0 -.611 1.878l.882 5.14a.53.53 0 0 1-.771.56l-4.618-2.428a2.122 2.122 0 0 0 -1.973 0L6.396 21.01a.53.53 0 0 1-.77-.56l.881-5.139a2.122 2.122 0 0 0 -.611-1.879L2.16 9.795a.53.53 0 0 1 .294-.906l5.165-.755a2.122 2.122 0 0 0 1.597-1.16z"/></g>
  <text x="34" y="28" class="lbl" fill="#bf7257">Total Stars Earned</text>
  <text x="474" y="28" text-anchor="end" class="val">12</text>
  <g transform="translate(6,50) scale(0.75)" stroke="#6f8bad" stroke-width="2" fill="none" stroke-linecap="round" stroke-linejoin="round"><circle cx="12" cy="12" r="3"/><line x1="3" y1="12" x2="9" y2="12"/><line x1="15" y1="12" x2="21" y2="12"/></g>
  <text x="34" y="64" class="lbl" fill="#6f8bad">Total Commits (2026)</text>
  <text x="474" y="64" text-anchor="end" class="val">358</text>
  <g transform="translate(6,86) scale(0.75)" stroke="#7e9c86" stroke-width="2" fill="none" stroke-linecap="round" stroke-linejoin="round"><circle cx="6" cy="6" r="3"/><circle cx="18" cy="18" r="3"/><path d="M13 6h3a2 2 0 0 1 2 2v7"/><line x1="6" y1="9" x2="6" y2="21"/></g>
  <text x="34" y="100" class="lbl" fill="#7e9c86">Total PRs</text>
  <text x="474" y="100" text-anchor="end" class="val">2</text>
  <g transform="translate(6,122) scale(0.75)" stroke="#bf7257" stroke-width="2" fill="none" stroke-linecap="round" stroke-linejoin="round"><circle cx="12" cy="12" r="9"/><circle cx="12" cy="12" r="1.6" fill="#bf7257" stroke="none"/></g>
  <text x="34" y="136" class="lbl" fill="#bf7257">Total Issues</text>
  <text x="474" y="136" text-anchor="end" class="val">4</text>
  <g transform="translate(6,158) scale(0.75)" stroke="#6f8bad" stroke-width="2" fill="none" stroke-linecap="round" stroke-linejoin="round"><path d="M20 20a2 2 0 0 0 2-2V8a2 2 0 0 0-2-2h-7.9a2 2 0 0 1-1.69-.9L9.6 3.9A2 2 0 0 0 7.93 3H4a2 2 0 0 0-2 2v13a2 2 0 0 0 2 2Z"/></g>
  <text x="34" y="172" class="lbl" fill="#6f8bad">Contributed to (2026)</text>
  <text x="474" y="172" text-anchor="end" class="val">13</text>
</svg>
